{"title":"Django Unchained ITA ENG AC3 BDRip 1080p X264 ZMachine","uid":9494323,"size":3876000519,"categoryP":"video","categoryS":"hd___movies","magnet":"?xt=urn:btih:ec399a483cbcb2292d19de7a87cc012e9c151b81&amp;dn=Django+Unchained+ITA+ENG+AC3+BDRip+1080p+X264+ZMachine&amp;tr=udp%3A%2F%2Ftracker.openbittorrent.com%3A80&amp;tr=udp%3A%2F%2Fopen.demonii.com%3A1337&amp;tr=udp%3A%2F%2Ftracker.coppersurfer.tk%3A6969&amp;tr=udp%3A%2F%2Fexodus.desync.com%3A6969","seeders":17,"leechers":2,"uploader":"ZMachTNT","files":-1,"time":1390061856,"description":".: Title :.\n\nDjango Unchained ITA ENG 1080p\n\n.: Original Release :.\n &lt;a href=&quot;\nhttp://forum.tntvillage.scambioetico.org/index.php?showtopic=380951&amp;hl=django&quot; rel=&quot;nofollow&quot; target=&quot;_NEW&quot;&gt;\nhttp://forum.tntvillage.scambioetico.org/index.php?showtopic=380951&amp;hl=django&lt;/a&gt;\n\n.: Mediainfo :.\n\nGeneral\nUnique ID                                : 187545244332819927306124605580897754770 (0x8D17E6736DB53AC489F401D2C8591E92)\nComplete name                            : H:TNTVillageDjango.Unchained.ITA.ENG.AC3.BDRip.1080p.X264-ZMachine.mkv\nFormat                                   : Matroska\nFormat version                           : Version 4 / Version 2\nFile size                                : 3.61 GiB\nDuration                                 : 2h 45mn\nOverall bit rate                         : 3 125 Kbps\nEncoded date                             : UTC 2014-01-12 10:12:04\nWriting application                      : mkvmerge v6.7.0 ('Back to the Ground') 64bit built on Jan  8 2014 15:10:52\nWriting library                          : libebml v1.3.0 + libmatroska v1.4.1\n\nVideo\nID                                       : 1\nFormat                                   : AVC\nFormat/Info                              : Advanced Video Codec\nFormat profile                           : &lt;a class=&quot;__cf_email__&quot; href=&quot;/cdn-cgi/l/email-protection&quot; data-cfemail=&quot;5e163739361e126a706f&quot;&gt;[email&amp;#160;protected]&lt;/a&gt;&lt;script cf-hash='f9e31' type=&quot;text/javascript&quot;&gt;\n/* &lt;![CDATA[ */!function(){try{var t=&quot;currentScript&quot;in document?document.currentScript:function(){for(var t=document.getElementsByTagName(&quot;script&quot;),e=t.length;e--;)if(t[e].getAttribute(&quot;cf-hash&quot;))return t[e]}();if(t&amp;&amp;t.previousSibling){var e,r,n,i,c=t.previousSibling,a=c.getAttribute(&quot;data-cfemail&quot;);if(a){for(e=&quot;&quot;,r=parseInt(a.substr(0,2),16),n=2;a.length-n;n+=2)i=parseInt(a.substr(n,2),16)^r,e+=String.fromCharCode(i);e=document.createTextNode(e),c.parentNode.replaceChild(e,c)}}}catch(u){}}();/* ]]&gt; */&lt;/script&gt;\nFormat settings, CABAC                   : Yes\nFormat settings, ReFrames                : 4 frames\nCodec ID                                 : V_MPEG4/ISO/AVC\nDuration                                 : 2h 45mn\nBit rate                                 : 2 355 Kbps\nWidth                                    : 1 920 pixels\nHeight                                   : 800 pixels\nDisplay aspect ratio                     : 2.40:1\nFrame rate mode                          : Constant\nFrame rate                               : 23.976 fps\nColor space                              : YUV\nChroma subsampling                       : 4:2:0\nBit depth                                : 8 bits\nScan type                                : Progressive\nBits/(Pixel*Frame)                       : 0.064\nStream size                              : 2.65 GiB (73%)\nTitle                                    : Video H.264\nWriting library                          : x264 core 123 r2189 35cf912\nEncoding settings                        : cabac=1 / ref=4 / deblock=1:0:0 / analyse=0x3:0x133 / me=hex / subme=9 / psy=1 / psy_rd=1.00:0.00 / mixed_ref=1 / me_range=16 / chroma_me=1 / trellis=1 / 8x8dct=1 / cqm=0 / deadzone=21,11 / fast_pskip=1 / chroma_qp_offset=-2 / threads=12 / sliced_threads=0 / nr=0 / decimate=1 / interlaced=0 / bluray_compat=0 / constrained_intra=0 / bframes=3 / b_pyramid=2 / b_adapt=1 / b_bias=0 / direct=1 / weightb=1 / open_gop=0 / weightp=2 / keyint=250 / keyint_min=25 / scenecut=40 / intra_refresh=0 / rc_lookahead=40 / rc=2pass / mbtree=1 / bitrate=2355 / ratetol=1.0 / qcomp=0.60 / qpmin=10 / qpmax=51 / qpstep=4 / cplxblur=20.0 / qblur=0.5 / ip_ratio=1.40 / aq=1:1.00\nDefault                                  : Yes\nForced                                   : No\n\nAudio #1\nID                                       : 2\nFormat                                   : AC-3\nFormat/Info                              : Audio Coding 3\nMode extension                           : CM (complete main)\nFormat settings, Endianness              : Big\nCodec ID                                 : A_AC3\nDuration                                 : 2h 45mn\nBit rate mode                            : Constant\nBit rate                                 : 384 Kbps\nChannel(s)                               : 6 channels\nChannel positions                        : Front: L C R, Side: L R, LFE\nSampling rate                            : 48.0 KHz\nBit depth                                : 16 bits\nCompression mode                         : Lossy\nDelay relative to video                  : -301ms\nStream size                              : 454 MiB (12%)\nTitle                                    : Audio AC3\nLanguage                                 : Italian\nDefault                                  : Yes\nForced                                   : No\n\nAudio #2\nID                                       : 3\nFormat                                   : AC-3\nFormat/Info                              : Audio Coding 3\nMode extension                           : CM (complete main)\nFormat settings, Endianness              : Big\nCodec ID                                 : A_AC3\nDuration                                 : 2h 45mn\nBit rate mode                            : Constant\nBit rate                                 : 384 Kbps\nChannel(s)                               : 6 channels\nChannel positions                        : Front: L C R, Side: L R, LFE\nSampling rate                            : 48.0 KHz\nBit depth                                : 16 bits\nCompression mode                         : Lossy\nDelay relative to video                  : -251ms\nStream size                              : 454 MiB (12%)\nTitle                                    : Audio AC3\nLanguage                                 : English\nDefault                                  : No\nForced                                   : No\n\nText #1\nID                                       : 4\nFormat                                   : ASS\nCodec ID                                 : S_TEXT/ASS\nCodec ID/Info                            : Advanced Sub Station Alpha\nCompression mode                         : Lossless\nTitle                                    : Sub Forced\nLanguage                                 : Italian\nDefault                                  : Yes\nForced                                   : Yes\n\nText #2\nID                                       : 5\nFormat                                   : ASS\nCodec ID                                 : S_TEXT/ASS\nCodec ID/Info                            : Advanced Sub Station Alpha\nCompression mode                         : Lossless\nTitle                                    : Sub\nLanguage                                 : Italian\nDefault                                  : No\nForced                                   : No\n\nText #3\nID                                       : 6\nFormat                                   : ASS\nCodec ID                                 : S_TEXT/ASS\nCodec ID/Info                            : Advanced Sub Station Alpha\nCompression mode                         : Lossless\nTitle                                    : Sub\nLanguage                                 : English\nDefault                                  : No\nForced                                   : No\n\nMenu\n00:00:00.000                             : en: Django Unchained\n00:03:36.466                             : en: 1858 - Somewhere in Texas\n00:12:47.933                             : en: Daughtrey, TX\n00:18:49.419                             : en: Sheriff Bill Sharp\n00:26:48.273                             : en: Tennessee\n00:31:44.527                             : en: &quot;You mean you wanna dress like that?&quot;\n00:40:27.133                             : en: It's a Raid\n00:46:05.512                             : en: The Legend of Broomhilda\n00:52:36.862                             : en: Smitty Bacall\n00:58:12.822                             : en: Mississippi\n01:02:20.319                             : en: One-Eyed Charlie\n01:12:13.495                             : en: The Ride to Candieland\n01:18:35.794                             : en: The Trackers\n01:26:08.037                             : en: Candieland\n01:34:49.642                             : en: Dr. Schultz Meets Broomhilda\n01:40:52.379                             : en: &quot;You knows what I like&quot;\n01:45:34.036                             : en: Eskimo Joe\n01:50:01.094                             : en: &quot;You scarin' me&quot;\n01:55:03.980                             : en: Old Ben\n02:03:54.969                             : en: &quot;Please stop playing Beethoven&quot;\n02:08:14.103                             : en: &quot;Broomhilda Von Shaft, consider yourself a free woman&quot;\n02:14:14.379                             : en: &quot;Django, we got your woman&quot;\n02:17:28.990                             : en: Castration Scene\n02:22:32.544                             : en: Lequint Dickey Mining Company\n02:26:28.529                             : en: &quot;He weren't no slave&quot;\n02:33:00.462                             : en: &quot;django Says Goodbye to Dr. Schultz\n02:35:41.999                             : en: &quot;In the sweet by and by&quot;\n02:41:30.931                             : en: &quot;They will call you the fastest gun in the south&quot;\n","torrent":{"xt":"urn:btih:ec399a483cbcb2292d19de7a87cc012e9c151b81","amp;dn":"Django+Unchained+ITA+ENG+AC3+BDRip+1080p+X264+ZMachine","amp;tr":["udp%3A%2F%2Ftracker.openbittorrent.com%3A80","udp%3A%2F%2Fopen.demonii.com%3A1337","udp%3A%2F%2Ftracker.coppersurfer.tk%3A6969","udp%3A%2F%2Fexodus.desync.com%3A6969"],"infoHash":"ec399a483cbcb2292d19de7a87cc012e9c151b81","infoHashBuffer":{"type":"Buffer","data":[236,57,154,72,60,188,178,41,45,25,222,122,135,204,1,46,156,21,27,129]},"announce":[],"urlList":[]}}